<?xml version="1.0" encoding="UTF-8"?>
<svg width="33px" height="33px" viewBox="0 0 33 33" version="1.1" xmlns="http://www.w3.org/2000/svg" xmlns:xlink="http://www.w3.org/1999/xlink">
    <!-- Generator: Sketch 50.2 (55047) - http://www.bohemiancoding.com/sketch -->
    <title>add-btn</title>
    <desc>Created with Sketch.</desc>
    <defs></defs>
    <g id="icons" stroke="none" stroke-width="1" fill="none" fill-rule="evenodd">
        <g id="iPhone-8" transform="translate(-239.000000, -169.000000)">
            <g id="add-btn" transform="translate(240.000000, 170.000000)">
                <g id="003-purse" transform="translate(4.920635, 6.396825)" fill="#141C3A" fill-rule="nonzero">
                    <path d="M17.3358078,6.85122737 L17.3358078,6.04184944 L17.3358078,3.16457276 C17.3358078,2.22255237 16.5694092,1.45615376 15.6274248,1.45615376 L8.21919261,1.45615376 L3.22125511,0.0281613455 C3.17219754,0.0191338899 3.16734214,0.0186303665 3.16248673,0.0183426389 C3.11939952,0.0193496857 3.11425638,0.0198172432 3.10918518,0.0205725283 C3.06857962,0.0296359498 3.06340052,0.031182486 3.05822142,0.032980784 C3.02099665,0.0492733632 3.01599738,0.0518629122 3.01110601,0.0547761548 C2.97787347,0.0777224364 2.97348562,0.0812111344 2.9692776,0.0849156281 C2.94050484,0.114371748 2.93712404,0.118328004 2.93392307,0.122464089 C2.9104373,0.158537945 2.90817144,0.162566133 2.90612138,0.166702218 C2.8898288,0.207631479 2.88867789,0.210364891 2.88781471,0.2133141 C2.88687959,0.217198424 2.78328564,0.631454334 2.57703286,1.45608183 L1.70856286,1.45608183 C0.76844867,1.45608183 0.0033808001,2.21938737 0.000287727668,3.15881821 C0.000263750363,3.16011298 0.00016784114,6.27905693 0,12.51565 C0,12.6645491 0.12120528,12.7853947 0.269744689,12.7853947 C0.418643757,12.7853947 0.539489378,12.6645491 0.539489378,12.51565 L0.539489378,4.40867123 C0.845343889,4.69625504 1.25657866,4.87299176 1.70856286,4.87299176 L15.6274248,4.87299176 C16.2724383,4.87345931 16.7963184,5.39762719 16.7963184,6.04188541 L16.7963184,7.9302421 L16.7964263,12.7856105 L16.7964263,14.6741111 C16.7964263,15.318693 16.2720427,15.8430767 15.6275327,15.8430767 L1.70870672,15.8430767 C1.06419675,15.8430767 0.539813072,15.318693 0.539813072,14.6741111 C0.539813072,14.673176 0.53974114,14.3133965 0.539597276,13.5947727 C0.539597276,13.4462333 0.418751655,13.325028 0.269852587,13.325028 C0.121313178,13.325028 0.000107897876,13.4462333 0.000107897876,13.5947727 L0.000107897876,14.6741111 C0.00503523419,15.6206272 0.769491683,16.382566 1.70870672,16.382566 L15.6275327,16.382566 C16.5694452,16.382566 17.3357718,15.6163113 17.3359157,14.6743988 C17.3359157,14.6743748 17.3358797,12.066651 17.3358078,6.85122737 Z M3.34123755,0.623505857 L8.10093653,1.98348665 C8.10115233,1.98355858 8.10140409,1.98359455 8.10161989,1.98366648 L11.2916565,2.8951158 L2.77347893,2.8951158 L3.34123755,0.623505857 Z M16.7962825,4.79764307 C16.4904639,4.5101312 16.0793011,4.33343045 15.6274248,4.33343045 C15.6269572,4.33343045 15.6265256,4.33350238 15.6260221,4.33350238 L1.70856286,4.33350238 C1.06401692,4.33350238 0.539633242,3.8091187 0.539633242,3.16457276 C0.539633242,2.52002682 1.06401692,1.99564314 1.70856286,1.99564314 L2.44219648,1.99564314 L2.21740924,2.8951158 L1.70863479,2.8951158 C1.55966379,2.8951158 1.4388901,3.01588949 1.4388901,3.16486049 C1.4388901,3.31383149 1.55966379,3.43460518 1.70863479,3.43460518 L2.42709078,3.43460518 C2.42745044,3.43460518 2.42784606,3.43467711 2.42824169,3.43467711 C2.42852942,3.43467711 2.42881715,3.43460518 2.42906891,3.43460518 L13.2167345,3.43460518 C13.2170941,3.43460518 13.2174178,3.43467711 13.2177415,3.43467711 C13.2180293,3.43467711 13.218317,3.43460518 13.2186047,3.43460518 L15.2674415,3.43460518 C15.4164125,3.43460518 15.5371862,3.31383149 15.5371862,3.16486049 C15.5371862,3.01588949 15.4164125,2.8951158 15.2674415,2.8951158 L13.2553979,2.8951158 L10.1073335,1.99564314 L15.6273888,1.99564314 C16.2718988,1.99564314 16.7962825,2.52002682 16.7962825,3.16457276 L16.7962825,4.79764307 Z" id="Shape"></path>
                </g>
                <g id="Group-3" transform="translate(20.174603, 12.301587)" stroke="#141C3A" stroke-linecap="square" stroke-width="2">
                    <path d="M0.187452759,3.93650794 L7.3106576,3.93650794" id="Line"></path>
                    <path d="M0.187452759,3.93650794 L7.3106576,3.93650794" id="Line" transform="translate(3.749055, 3.936508) rotate(90.000000) translate(-3.749055, -3.936508) "></path>
                </g>
                <circle id="Oval-3" stroke="#141C3A" cx="15.5" cy="15.5" r="15.5"></circle>
            </g>
        </g>
    </g>
</svg>