<?xml version="1.0" encoding="UTF-8"?>
<svg width="62px" height="61px" viewBox="0 0 62 61" version="1.1" xmlns="http://www.w3.org/2000/svg" xmlns:xlink="http://www.w3.org/1999/xlink">
    <!-- Generator: Sketch 50.2 (55047) - http://www.bohemiancoding.com/sketch -->
    <title>map-icon</title>
    <desc>Created with Sketch.</desc>
    <defs></defs>
    <g id="icons" stroke="none" stroke-width="1" fill="none" fill-rule="evenodd">
        <g id="iPhone-8" transform="translate(-157.000000, -303.000000)" fill="#141C3A" fill-rule="nonzero">
            <g id="map-icon" transform="translate(157.000000, 303.000000)">
                <path d="M30.938,26.584 C34.797,26.584 37.938,23.443 37.938,19.584 C37.938,15.725 34.797,12.584 30.938,12.584 C27.079,12.584 23.938,15.725 23.938,19.584 C23.938,23.443 27.078,26.584 30.938,26.584 Z M30.938,14.584 C33.695,14.584 35.938,16.827 35.938,19.584 C35.938,22.341 33.695,24.584 30.938,24.584 C28.181,24.584 25.938,22.341 25.938,19.584 C25.938,16.827 28.181,14.584 30.938,14.584 Z" id="Shape"></path>
                <path d="M50.216,37.584 L43.055,37.584 L46.102,33.184 C51.857,25.513 51.024,12.904 44.321,6.202 C40.7,2.58 35.884,0.585 30.761,0.585 C25.639,0.585 20.823,2.58 17.201,6.202 C10.498,12.904 9.665,25.514 15.397,33.154 L18.465,37.585 L10.952,37.585 L0,60.584 L61.168,60.584 L50.216,37.584 Z M17.02,31.984 C11.821,25.051 12.566,13.664 18.616,7.615 C21.86,4.371 26.174,2.584 30.762,2.584 C35.35,2.584 39.663,4.371 42.908,7.615 C48.958,13.664 49.703,25.052 44.481,32.014 L30.761,51.827 L20.898,37.584 L17.02,31.984 Z M12.216,39.584 L19.85,39.584 L30.761,55.341 L41.671,39.584 L48.952,39.584 L58,58.584 L3.168,58.584 L12.216,39.584 Z" id="Shape"></path>
            </g>
        </g>
    </g>
</svg>