<?xml version="1.0" encoding="UTF-8"?>
<svg width="179px" height="80px" viewBox="0 0 179 80" version="1.1" xmlns="http://www.w3.org/2000/svg" xmlns:xlink="http://www.w3.org/1999/xlink">
    <!-- Generator: Sketch 50.2 (55047) - http://www.bohemiancoding.com/sketch -->
    <title>REWARD</title>
    <desc>Created with Sketch.</desc>
    <defs></defs>
    <g id="icons" stroke="none" stroke-width="1" fill="none" fill-rule="evenodd">
        <g id="iPhone-8" transform="translate(-103.000000, -71.000000)" fill-rule="nonzero">
            <g id="REWARD" transform="translate(103.000000, 71.000000)">
                <g id="003-coffee" transform="translate(0.000000, 18.000000)">
                    <path d="M39.2222222,8.38095238 L4.77777778,8.38095238 C4.77777778,4.15873016 8.20634921,0.73015873 12.4285714,0.73015873 L31.5714286,0.73015873 C35.7936508,0.73015873 39.2222222,4.15873016 39.2222222,8.38095238 Z" id="Shape" fill="#E6E9EE"></path>
                    <g id="Group" transform="translate(3.904762, 10.539683)" fill="#F89B73">
                        <path d="M30.3650794,44.7301587 L5.84126984,44.7301587 C4.6031746,44.7301587 3.55555556,43.7777778 3.46031746,42.5396825 L0.142857143,0.0634920635 L36.047619,0.0634920635 L32.7301587,42.5396825 C32.6349206,43.7619048 31.6031746,44.7301587 30.3650794,44.7301587 Z" id="Shape"></path>
                        <path d="M36.047619,0.0476190476 L34.7936508,16.0793651 L34.031746,25.952381 L32.7301587,42.5396825 C32.6349206,43.7777778 31.6031746,44.7301587 30.3492063,44.7301587 L5.84126984,44.7301587 C4.58730159,44.7301587 3.55555556,43.7777778 3.46031746,42.5396825 L2.15873016,25.952381 L1.3968254,16.0793651 L0.142857143,0.0476190476 L36.047619,0.0476190476 Z" id="Shape"></path>
                    </g>
                    <path d="M37.9365079,36.4761905 L32.3015873,36.4761905 C31.7460317,37.6507937 30.984127,38.7142857 30.0793651,39.6190476 C28.015873,41.6825397 25.1587302,42.968254 22,42.968254 C17.4603175,42.968254 13.5396825,40.3174603 11.6984127,36.4920635 L6.06349206,36.4920635 L5.3015873,26.6190476 L11.7142857,26.6190476 C12.2698413,25.4444444 13.031746,24.3968254 13.9365079,23.4761905 C16,21.4126984 18.8571429,20.1269841 22.015873,20.1269841 C25.1746032,20.1269841 28.015873,21.4126984 30.0952381,23.4761905 C31,24.3809524 31.7619048,25.4444444 32.3174603,26.6190476 L38.6984127,26.6190476 L37.9365079,36.4761905 Z" id="Shape" fill="#FFECCC"></path>
                    <path d="M39.8730159,12.3492063 L4.12698413,12.3492063 C2.3015873,12.3492063 0.841269841,10.8730159 0.841269841,9.06349206 C0.841269841,7.23809524 2.31746032,5.77777778 4.12698413,5.77777778 L39.8571429,5.77777778 C41.6825397,5.77777778 43.1428571,7.25396825 43.1428571,9.06349206 C43.1587302,10.8730159 41.6825397,12.3492063 39.8730159,12.3492063 Z" id="Shape" fill="#CED5E0"></path>
                    <ellipse id="Oval" fill="#141C3A" transform="translate(21.994797, 31.552989) rotate(-45.000000) translate(-21.994797, -31.552989) " cx="21.9947969" cy="31.5529893" rx="4.69836764" ry="7.47611878"></ellipse>
                </g>
                <g id="004-ice-cream" transform="translate(66.000000, 0.000000)">
                    <g id="Group" transform="translate(3.268817, 37.161290)" fill="#FFD884">
                        <path d="M13.2550538,40.7645591 L0.080688172,0.126623656 L32.0338925,0.126623656 L18.7466667,40.7645591 C18.1772043,42.2809462 16.4863656,43.0487742 14.9698065,42.4793118 C14.1777204,42.1818495 13.5525161,41.5568172 13.2550538,40.7645591 Z" id="Shape"></path>
                        <polygon id="Shape" points="32.0338925 0.126623656 26.7143226 0.126623656 28.4609032 1.8732043 7.45651613 22.8775914 9.19896774 28.2522151 29.4628817 7.98967742"></polygon>
                        <polygon id="Shape" points="0.080688172 0.126623656 3.80782796 11.6232258 15.3030538 0.126623656"></polygon>
                        <polygon id="Shape" points="15.7035699 0.126623656 17.4501505 1.8732043 4.76025806 14.5630968 6.50270968 19.9377204 26.3138065 0.126623656"></polygon>
                        <path d="M13.2550538,40.7631828 C13.8222796,42.2795699 15.5113978,43.0491183 17.027957,42.4818925 C17.8226237,42.1846022 18.4493763,41.5578495 18.7466667,40.7631828 L22.2233118,30.1323011 L12.8476559,39.507957 L13.2550538,40.7631828 Z" id="Shape"></path>
                        <polygon id="Shape" points="10.1513978 31.192086 11.8952258 36.568086 24.1144086 24.3489032 27.5717849 13.7730753"></polygon>
                    </g>
                    <polygon id="Shape" fill="#000000" points="29.8334828 37.0883441 29.5826237 37.5883441 30.0826237 37.5883441"></polygon>
                    <g id="Group" transform="translate(9.634409, 37.161290)" fill="#FFBF41">
                        <polygon id="Shape" points="20.3487312 0.126623656 19.9482151 0.126623656 0.13711828 19.9377204 1.09092473 22.8775914 22.0953118 1.8732043"></polygon>
                        <polygon id="Shape" points="23.0972903 7.98967742 2.83337634 28.2522151 3.78580645 31.192086 21.2061935 13.7730753"></polygon>
                        <polygon id="Shape" points="6.48206452 39.507957 15.8577204 30.1323011 17.7488172 24.3489032 5.52963441 36.568086"></polygon>
                    </g>
                    <polygon id="Shape" fill="#000000" points="18.8227301 37.0883441 18.571871 37.5883441 19.071871 37.5883441"></polygon>
                    <polygon id="Shape" fill="#FFBF41" points="18.9723871 37.287914 18.571871 37.287914 7.07664516 48.7845161 8.02907527 51.7243871 20.7189677 39.0344946"></polygon>
                    <path d="M35.7858065,34.4086022 L35.7087312,34.4086022 C35.7472688,33.9530323 35.7858065,33.4974624 35.7858065,33.0322581 C35.7870108,29.5723011 34.6950538,26.2002581 32.6656344,23.3978495 L5.87372043,23.3978495 C3.84430108,26.2002581 2.75234409,29.5723011 2.75354839,33.0322581 C2.75354839,33.4974624 2.79208602,33.9530323 2.83062366,34.4086022 L2.75354839,34.4086022 C1.2332043,34.4086022 0.000860215054,35.6409462 0.000860215054,37.1612903 C0.000860215054,38.6816344 1.2332043,39.9139785 2.75354839,39.9139785 L30.2804301,39.9139785 L30.2804301,45.4193548 C30.2804301,46.9396989 31.5127742,48.172043 33.0331183,48.172043 C34.5534624,48.172043 35.7858065,46.9396989 35.7858065,45.4193548 L35.7858065,39.9139785 C37.3061505,39.9139785 38.5384946,38.6816344 38.5384946,37.1612903 C38.5384946,35.6409462 37.3061505,34.4086022 35.7858065,34.4086022 Z" id="Shape" fill="#EACFFF"></path>
                    <path d="M35.7858065,17.8924731 C35.7472688,17.4369032 35.7858065,16.9813333 35.7858065,16.516129 C35.7858065,7.39458065 28.3912258,0 19.2696774,0 C10.148129,0 2.75354839,7.39458065 2.75354839,16.516129 C2.75354839,16.9813333 2.79208602,17.4369032 2.83062366,17.8924731 C1.2332043,17.8924731 0.000860215054,19.1248172 0.000860215054,20.6451613 C0.000860215054,22.1655054 1.2332043,23.3978495 2.75354839,23.3978495 L8.25892473,23.3978495 L8.25892473,26.1505376 C8.25892473,27.6708817 9.49126882,28.9032258 11.0116129,28.9032258 C12.531957,28.9032258 13.7643011,27.6708817 13.7643011,26.1505376 L13.7643011,23.3978495 L35.7858065,23.3978495 C37.3061505,23.3978495 38.5384946,22.1655054 38.5384946,20.6451613 C38.5384946,19.1248172 37.3061505,17.8924731 35.7858065,17.8924731 Z" id="Shape" fill="#B1FFFB"></path>
                </g>
                <g id="001-croissant" transform="translate(149.834295, 50.917383) rotate(-127.000000) translate(-149.834295, -50.917383) translate(118.834295, 34.917383)">
                    <path d="M30.3448276,30.8965517 C28.7183448,30.8965517 27.296,29.801931 26.88,28.2295172 L20.8011034,5.26013793 C20.3111724,2.51806897 22.4198621,0 25.2049655,0 L35.4835862,0 C38.2686897,0 40.3773793,2.51806897 39.8874483,5.26013793 L33.8096552,28.2295172 C33.3936552,29.801931 31.9713103,30.8965517 30.3448276,30.8965517 Z" id="Shape" fill="#EEAF4B"></path>
                    <path d="M51.1746207,6.18813793 C47.5155862,3.52993103 42.4971034,2.03475862 39.4703448,2.45517241 C39.8929655,3.28606897 40.0673103,4.25710345 39.8885517,5.26013793 L33.8096552,28.2295172 C33.7147586,28.5892414 33.5613793,28.9191724 33.3704828,29.2215172 C33.8714483,29.5238621 34.4474483,29.7313103 35.0775172,29.7798621 C40.3343448,31.4747586 48.5682759,20.8584828 52.7845517,14.7542069 C54.9462069,11.6226207 54.2532414,8.42372414 51.1746207,6.18813793 Z" id="Shape" fill="#F4C44E"></path>
                    <path d="M26.88,28.2295172 L20.8011034,5.26013793 C20.6201379,4.24717241 20.7977931,3.26731034 21.2292414,2.43089655 C18.1892414,2.07889655 13.270069,3.57296552 9.67062069,6.18703448 C6.592,8.42262069 5.89903448,11.6226207 8.06068966,14.7542069 C12.2758621,20.8595862 20.5108966,31.4747586 25.7677241,29.7798621 C26.3492414,29.7346207 26.8844138,29.5547586 27.3588966,29.2910345 C27.1470345,28.9721379 26.9826207,28.6157241 26.88,28.2295172 Z" id="Shape" fill="#F4C44E"></path>
                    <g id="Group" transform="translate(0.000000, 12.137931)" fill="#F1B501">
                        <path d="M8.0617931,2.61627586 C7.6457931,2.0137931 7.33793103,1.40910345 7.12937931,0.808827586 C4.1622069,3.78482759 1.83172414,7.30593103 0.37737931,11.2077241 C-1.18841379,15.4063448 2.37351724,19.7395862 6.39889655,18.5611034 L18.646069,14.9782069 C14.6802759,11.7142069 10.6273103,6.33158621 8.0617931,2.61627586 Z" id="Shape"></path>
                        <path d="M61.4157241,11.2088276 C59.84,6.98262069 57.2446897,3.19668966 53.9155862,0.0750344828 C53.7401379,0.913655172 53.3704828,1.76772414 52.7845517,2.61737931 C50.2731034,6.25544828 46.3337931,11.4935172 42.4485517,14.7751724 L55.3953103,18.5633103 C59.4195862,19.7395862 62.9815172,15.4074483 61.4157241,11.2088276 Z" id="Shape"></path>
                    </g>
                    <path d="M25.2049655,0 C25.1586207,0 25.1166897,0.0132413793 25.0714483,0.0154482759 L26.88,6.85131034 C27.296,8.42372414 28.7183448,9.51834483 30.3448276,9.51834483 C31.9713103,9.51834483 33.3936552,8.42372414 33.8096552,6.85131034 L35.6182069,0.0154482759 C35.5718621,0.0132413793 35.5310345,0 35.4846897,0 L25.2049655,0 Z" id="Shape" fill="#F4C44E"></path>
                </g>
            </g>
        </g>
    </g>
</svg>