<?xml version="1.0" encoding="UTF-8"?>
<svg width="32px" height="31px" viewBox="0 0 32 31" version="1.1" xmlns="http://www.w3.org/2000/svg" xmlns:xlink="http://www.w3.org/1999/xlink">
    <!-- Generator: Sketch 50.2 (55047) - http://www.bohemiancoding.com/sketch -->
    <title>barcode</title>
    <desc>Created with Sketch.</desc>
    <defs></defs>
    <g id="List-View" stroke="none" stroke-width="1" fill="none" fill-rule="evenodd">
        <g transform="translate(-172.000000, -590.000000)" fill="#141C3A" fill-rule="nonzero" id="barcode">
            <g transform="translate(172.000000, 590.000000)">
                <g id="Group-3">
                    <path d="M27.7904494,0 L25.213826,0 C24.7390831,0 24.3549247,0.384158442 24.3549247,0.858901299 C24.3549247,1.33364416 24.7390831,1.7178026 25.213826,1.7178026 L27.7904494,1.7178026 C28.7382442,1.7178026 29.5081714,2.48861558 29.5081714,3.43552468 L29.5081714,6.01214805 C29.5081714,6.48689091 29.8923299,6.87104935 30.3670727,6.87104935 C30.8418156,6.87104935 31.225974,6.48689091 31.225974,6.01214805 L31.225974,3.43552468 C31.225974,1.54074026 29.6843481,0 27.7904494,0 Z" id="Shape"></path>
                    <path d="M0.858901299,6.87096883 C1.33364416,6.87096883 1.7178026,6.48681039 1.7178026,6.01206753 L1.7178026,3.43544416 C1.7178026,2.48853506 2.48781039,1.71772208 3.43552468,1.71772208 L6.01214805,1.71772208 C6.48689091,1.71772208 6.87104935,1.33356364 6.87104935,0.858820779 C6.87096883,0.384158442 6.48689091,0 6.01214805,0 L3.43552468,0 C1.54162597,0 0,1.54074026 0,3.43552468 L0,6.01214805 C0,6.48689091 0.384158442,6.87096883 0.858901299,6.87096883 Z" id="Shape"></path>
                    <path d="M30.3670727,24.0485117 C29.8923299,24.0485117 29.5081714,24.4326701 29.5081714,24.907413 L29.5081714,27.4840364 C29.5081714,28.4309455 28.7381636,29.2017584 27.7904494,29.2017584 L25.213826,29.2017584 C24.7390831,29.2017584 24.3549247,29.5859169 24.3549247,30.0606597 C24.3549247,30.5354026 24.7390831,30.919561 25.213826,30.919561 L27.7904494,30.919561 C29.6843481,30.9194805 31.225974,29.3787403 31.225974,27.4839558 L31.225974,24.9073325 C31.225974,24.4326701 30.8418156,24.0485117 30.3670727,24.0485117 Z" id="Shape"></path>
                    <path d="M6.01214805,29.2017584 L3.43552468,29.2017584 C2.48772987,29.2017584 1.7178026,28.4309455 1.7178026,27.4840364 L1.7178026,24.907413 C1.7178026,24.4326701 1.33364416,24.0485117 0.858901299,24.0485117 C0.384158442,24.0485117 0,24.4326701 0,24.9073325 L0,27.4839558 C0,29.3787403 1.54162597,30.9194805 3.43552468,30.9194805 L6.01214805,30.9194805 C6.48689091,30.9194805 6.87104935,30.5353221 6.87104935,30.0605792 C6.87096883,29.5859169 6.48689091,29.2017584 6.01214805,29.2017584 Z" id="Shape"></path>
                </g>
                <path d="M28.6626381,14 L2.56730828,14 C2.25373843,14 2,14.3841584 2,14.8588208 C2,15.3335636 2.25373843,15.7177221 2.56730828,15.7177221 L5.40374329,15.7177221 L6.53835985,15.7177221 L8.80748659,15.7177221 L9.94210314,15.7177221 L11.0766665,15.7177221 L12.2112831,15.7177221 L13.3458464,15.7177221 L14.480463,15.7177221 L16.7496429,15.7177221 L17.8842595,15.7177221 L19.0187165,15.7177221 L20.153333,15.7177221 L22.4224598,15.7177221 L23.5570763,15.7177221 L24.6916397,15.7177221 L25.8262562,15.7177221 L28.6626913,15.7177221 C28.9762611,15.7177221 29.2299995,15.3335636 29.2299995,14.8588208 C29.2299464,14.3841584 28.9762079,14 28.6626381,14 Z" id="Shape"></path>
            </g>
        </g>
    </g>
</svg>