<?xml version="1.0" encoding="UTF-8"?>
<svg width="37px" height="28px" viewBox="0 0 37 28" version="1.1" xmlns="http://www.w3.org/2000/svg" xmlns:xlink="http://www.w3.org/1999/xlink">
    <!-- Generator: Sketch 50.2 (55047) - http://www.bohemiancoding.com/sketch -->
    <title>002-checked</title>
    <desc>Created with Sketch.</desc>
    <defs></defs>
    <g id="Card-Designs" stroke="none" stroke-width="1" fill="none" fill-rule="evenodd">
        <g id="iPhone-8" transform="translate(-293.000000, -104.000000)" fill="#141C3A" fill-rule="nonzero">
            <g id="card-view-1" transform="translate(18.000000, 50.000000)">
                <g id="Group" transform="translate(27.000000, 54.000000)">
                    <g id="002-checked" transform="translate(248.000000, 0.000000)">
                        <path d="M0.418271146,15.3366087 C0.139423715,15.0577613 0,14.6394901 0,14.3606427 C0,14.0817952 0.139423715,13.6635241 0.418271146,13.3846767 L2.37020316,11.4327447 C2.92789802,10.8750498 3.76444031,10.8750498 4.32213517,11.4327447 L4.46155889,11.5721684 L12.1298632,19.7981676 C12.4087107,20.077015 12.8269818,20.077015 13.1058292,19.7981676 L31.7886071,0.418271146 L31.9280308,0.418271146 C32.4857257,-0.139423715 33.322268,-0.139423715 33.8799628,0.418271146 L35.8318948,2.37020316 C36.3895897,2.92789802 36.3895897,3.76444031 35.8318948,4.32213517 L13.5241004,27.4664719 C13.245253,27.7453193 12.9664055,27.8847431 12.5481344,27.8847431 C12.1298632,27.8847431 11.8510158,27.7453193 11.5721684,27.4664719 L0.697118577,15.7548798 L0.418271146,15.3366087 Z" id="Shape"></path>
                    </g>
                </g>
            </g>
        </g>
    </g>
</svg>