<?xml version="1.0" encoding="UTF-8"?>
<svg width="38px" height="34px" viewBox="0 0 38 34" version="1.1" xmlns="http://www.w3.org/2000/svg" xmlns:xlink="http://www.w3.org/1999/xlink">
    <!-- Generator: Sketch 50.2 (55047) - http://www.bohemiancoding.com/sketch -->
    <title>003-purse</title>
    <desc>Created with Sketch.</desc>
    <defs></defs>
    <g id="icons" stroke="none" stroke-width="1" fill="none" fill-rule="evenodd">
        <g id="iPhone-8" transform="translate(-129.000000, -290.000000)" fill="#141C3A" fill-rule="nonzero">
            <g id="003-purse" transform="translate(129.000000, 290.000000)">
                <path d="M35.7787337,13.9234621 L35.2308352,13.9234621 L35.2308352,12.2785973 L35.2308352,6.43122851 C35.2308352,4.51679998 33.6733155,2.95928023 31.75896,2.95928023 L16.7035205,2.95928023 L6.54642168,0.0572311216 C6.54349799,0.0564271084 6.54050121,0.0559885557 6.53757753,0.0551845425 C6.53458075,0.0543805293 6.53173016,0.0532110556 6.52873338,0.0524801345 C6.52259365,0.0509452002 6.516527,0.0502142791 6.51046036,0.0488986211 C6.50103148,0.0469251342 6.49160259,0.0448785551 6.48217371,0.0433436208 C6.47362193,0.0419548707 6.46521634,0.0410777654 6.45666457,0.0400544759 C6.44672404,0.0388850021 6.4368566,0.0378617126 6.42698917,0.0372769757 C6.41894904,0.0368384231 6.410982,0.036765331 6.40294186,0.0366191467 C6.39270897,0.0364729625 6.38254917,0.0363998704 6.37238936,0.0368384231 C6.36486088,0.0371307915 6.35733239,0.0378617126 6.34987699,0.0384464495 C6.33942482,0.0393235548 6.32897265,0.0402737522 6.31866666,0.0418086865 C6.31164982,0.042831976 6.30470607,0.044147634 6.29776232,0.0453901999 C6.28709087,0.0472905947 6.27656561,0.0493371738 6.26611344,0.0518953976 C6.25960824,0.053503424 6.25324923,0.0553307267 6.24681712,0.0571580295 C6.23614567,0.060227898 6.22562041,0.0633708587 6.21509514,0.0670254642 C6.20917468,0.0691451354 6.20332731,0.0714109908 6.19740685,0.0737499383 C6.1868085,0.0778430964 6.17628323,0.0821555308 6.16597725,0.0869065179 C6.16049534,0.0894647418 6.15515961,0.0922422419 6.1497508,0.09494665 C6.13944481,0.10013619 6.12928501,0.105398822 6.11934448,0.111319282 C6.11415494,0.114316059 6.10918468,0.117532112 6.10406823,0.120748165 C6.09427389,0.126887902 6.08462573,0.133173823 6.07526994,0.139971389 C6.07037277,0.143479811 6.06562178,0.1472806 6.0607977,0.151008298 C6.05180737,0.157952048 6.04289013,0.165041983 6.03433836,0.17257047 C6.02951428,0.176809812 6.02490948,0.181268431 6.02023158,0.185653958 C6.01219145,0.193255537 6.00422441,0.200857116 5.99662283,0.208897248 C5.99187184,0.213940604 5.98741322,0.219203236 5.98280842,0.224465868 C5.97586467,0.232432908 5.96899401,0.24047304 5.96248881,0.248878632 C5.95781092,0.254945277 5.95342539,0.261158106 5.94896677,0.267370936 C5.9431925,0.27548416 5.93749131,0.283670476 5.93222868,0.292076069 C5.92769697,0.299239095 5.92353072,0.306694491 5.91936447,0.314076794 C5.91475967,0.322190018 5.91015486,0.330376334 5.90598861,0.338781927 C5.90189546,0.346968243 5.89824085,0.355373835 5.89451315,0.363779428 C5.89085855,0.372038836 5.88727703,0.380298245 5.88406098,0.388776929 C5.88069874,0.397694167 5.87777506,0.40683068 5.87477828,0.416040286 C5.87287789,0.421960747 5.87053894,0.427515747 5.86878473,0.4335093 C5.86790762,0.436506077 5.86754216,0.439429761 5.86673815,0.442353445 C5.86593414,0.445350222 5.86476466,0.448200814 5.86403374,0.451197591 L5.23719581,2.95913404 L3.47224065,2.95913404 C1.56168601,2.95913404 0.00687065827,4.51036788 0.000584736874,6.41953377 C0.000511644765,6.42348075 0,6.42720845 0,6.43108233 L0,25.4350307 C0,25.7376321 0.246320408,25.9832216 0.54819082,25.9832216 C0.850792152,25.9832216 1.09638164,25.7376321 1.09638164,25.4350307 L1.09638164,8.95955766 C1.71795694,9.54400217 2.55369211,9.90317679 3.47224065,9.90317679 L31.75896,9.90317679 C31.7596179,9.90317679 31.7602026,9.9031037 31.7608604,9.9031037 C33.0697939,9.90412699 34.1344536,10.9693714 34.1344536,12.2786703 L34.1344536,16.1162985 L28.1034775,16.1162985 C28.103112,16.1162985 28.1028196,16.1163715 28.1024542,16.1163715 C28.0865932,16.1163715 28.0708053,16.1173217 28.0550905,16.1187105 C28.0376215,16.1202454 28.0203717,16.1227306 28.0034144,16.1258735 C28.0008561,16.1263121 27.998371,16.1265313 27.9958128,16.127043 C27.9814867,16.1298936 27.967453,16.1336944 27.9534925,16.1376413 C27.9504226,16.1385185 27.9472796,16.1391032 27.9442829,16.1400534 C27.9318572,16.1438542 27.919797,16.1483859 27.9077368,16.1529907 C27.903132,16.1547449 27.8984541,16.1562067 27.8938493,16.1581071 C27.8837626,16.1622734 27.8740413,16.1671706 27.8643201,16.1719215 C27.857888,16.1749914 27.8513828,16.177842 27.8450969,16.1811312 C27.8374953,16.1851512 27.8303323,16.189756 27.823023,16.1941415 C27.8149098,16.1989656 27.8066504,16.2036435 27.7987565,16.2089062 C27.7934207,16.2124146 27.7885236,16.2164346 27.7834071,16.2201623 C27.7740513,16.2268868 27.7646224,16.2335382 27.7557052,16.2409205 C27.7518313,16.2441366 27.7482498,16.2477181 27.7445221,16.2510072 C27.734947,16.2593397 27.725372,16.2675991 27.7163086,16.2766625 C27.7109728,16.2819983 27.7061488,16.2878456 27.7011054,16.2934006 C27.6940155,16.3010753 27.6867063,16.3086038 27.6799818,16.3167901 C27.6686525,16.3306045 27.6580542,16.3449306 27.6481136,16.3597683 C27.6478943,16.3599875 27.6476751,16.3602799 27.6475289,16.3605723 L24.7239907,20.7461719 C24.703598,20.7767244 24.6863483,20.8091042 24.67268,20.8427997 C24.6674905,20.8553715 24.6633242,20.8681627 24.659158,20.8808807 C24.6579154,20.8847546 24.6563074,20.8884823 24.6551379,20.8923561 C24.6510448,20.9058782 24.6479018,20.9195464 24.644905,20.9331415 C24.644101,20.9367231 24.6430777,20.9402315 24.6423468,20.943813 C24.6399348,20.9560925 24.6383267,20.968445 24.6367918,20.9807976 C24.636134,20.9860602 24.6351107,20.9913229 24.6345991,20.9966586 C24.6335758,21.0068184 24.6333565,21.0169051 24.632991,21.0270649 C24.6326256,21.0348127 24.6319677,21.0425604 24.6319677,21.0503813 C24.6319677,21.0579098 24.6326256,21.0654383 24.6329179,21.0729667 C24.6332834,21.0833458 24.6335758,21.093798 24.6345991,21.1041771 C24.6351107,21.1092204 24.6360609,21.1142638 24.6367187,21.1193071 C24.6383267,21.131879 24.6399348,21.1444508 24.6424199,21.1569496 C24.6430777,21.1603849 24.644101,21.1637471 24.644905,21.1671825 C24.6479018,21.1809238 24.6511179,21.1946651 24.655211,21.2083333 C24.6563805,21.2122072 24.6579885,21.2159349 24.6592311,21.2198819 C24.6633973,21.2325999 24.6675636,21.245391 24.6727531,21.2579629 C24.6864944,21.2915852 24.7037442,21.3240381 24.72421,21.3546637 L27.6476751,25.7396056 C27.6478213,25.7398248 27.6479674,25.739971 27.6481136,25.7401903 C27.6598815,25.7576593 27.6727457,25.7743243 27.6863408,25.7903315 C27.6907994,25.7955941 27.6955504,25.8004913 27.7001552,25.8054615 C27.7094379,25.8156214 27.7190861,25.8254157 27.7290997,25.8348446 C27.7350201,25.8403996 27.7408675,25.8458084 27.7468611,25.8509979 C27.7575325,25.8601344 27.7685694,25.8686862 27.7798987,25.8770187 C27.7850151,25.8807464 27.7899123,25.8848396 27.7951019,25.888348 C27.8115476,25.8995311 27.828578,25.9098371 27.8461932,25.9191929 C27.8506519,25.9215318 27.8552567,25.9235053 27.8597153,25.9256981 C27.873749,25.9327149 27.888075,25.9392201 27.9027665,25.9449944 C27.9084677,25.9472602 27.9141689,25.9493068 27.9199432,25.9513534 C27.9339038,25.9563237 27.9480836,25.9607092 27.9625559,25.9645831 C27.9684763,25.966118 27.9743237,25.967726 27.9803173,25.9691879 C27.995155,25.9726232 28.0102119,25.9752545 28.0254882,25.9774473 C28.0310432,25.9782513 28.0365251,25.9793477 28.0420801,25.9800055 C28.0609379,25.9821252 28.080088,25.9832947 28.0995305,25.9834408 C28.1010654,25.9834408 28.1026004,25.9837332 28.1042084,25.9837332 C28.1045008,25.9837332 28.1048662,25.9836601 28.1052317,25.9836601 L34.1346729,25.9836601 L34.1346729,29.8215806 C34.1346729,31.1315374 33.0689899,32.1972203 31.7591793,32.1972203 L3.47253302,32.1972203 C2.16272242,32.1972203 1.09703947,31.1315374 1.09703947,29.8215806 C1.09703947,29.81873 1.09667401,29.8159525 1.09660092,29.8131019 L1.09660092,27.6280864 C1.09660092,27.326216 0.851011428,27.0798956 0.548410096,27.0798956 C0.246539685,27.0798956 0.000219276328,27.326216 0.000219276328,27.6280864 L0.000219276328,29.8215806 C0.000219276328,29.8272818 0.000877105311,29.8328368 0.00109638164,29.8384649 C0.0102328953,31.7451456 1.56380568,33.293602 3.47253302,33.293602 L31.7591793,33.293602 C33.6733886,33.293602 35.2307621,31.7363746 35.2310545,29.8221653 C35.2310545,29.8220922 35.2310545,29.8220191 35.2310545,29.821873 L35.2310545,25.9836601 L35.778953,25.9836601 C36.6855875,25.9836601 37.423233,25.2460145 37.423233,24.33938 L37.423233,15.5677422 C37.4230138,14.6611076 36.6853682,13.9234621 35.7787337,13.9234621 Z M6.79025695,1.26712481 L16.4631936,4.03095673 C16.4636322,4.03110292 16.4641438,4.03117601 16.4645824,4.0313222 L22.9475601,5.88362243 L5.63642491,5.88362243 L6.79025695,1.26712481 Z M34.1343805,9.75004883 C33.5128783,9.1657505 32.6772893,8.80664897 31.75896,8.80664897 C31.7580098,8.80664897 31.7571327,8.80679515 31.7561094,8.80679515 L3.47224065,8.80679515 C2.16235696,8.80679515 1.09667401,7.7411122 1.09667401,6.43122851 C1.09667401,5.12134482 2.16235696,4.05566187 3.47224065,4.05566187 L4.9631735,4.05566187 L4.50634781,5.88362243 L3.47238684,5.88362243 C3.16963932,5.88362243 2.92419602,6.12906573 2.92419602,6.43181325 C2.92419602,6.73456076 3.16963932,6.98000407 3.47238684,6.98000407 L4.93247481,6.98000407 C4.93320573,6.98000407 4.93400974,6.98015025 4.93481376,6.98015025 C4.93539849,6.98015025 4.93598323,6.98000407 4.93649488,6.98000407 L26.8598152,6.98000407 C26.8605461,6.98000407 26.861204,6.98015025 26.8618618,6.98015025 C26.8624465,6.98015025 26.8630313,6.98000407 26.863616,6.98000407 L31.0273811,6.98000407 C31.3301286,6.98000407 31.5755719,6.73456076 31.5755719,6.43181325 C31.5755719,6.12906573 31.3301286,5.88362243 31.0273811,5.88362243 L26.9383892,5.88362243 L20.54071,4.05566187 L31.7588869,4.05566187 C33.0686975,4.05566187 34.1343805,5.12134482 34.1343805,6.43122851 L34.1343805,9.75004883 Z M36.3266321,24.3390877 C36.3266321,24.6411773 36.0808234,24.8869861 35.7787337,24.8869861 L28.3968692,24.8869861 L25.8387185,21.0500889 L28.3968692,17.212607 L35.7787337,17.212607 C35.7864083,17.212607 35.7938637,17.2117299 35.8014653,17.2114375 C35.9853651,17.2088793 36.1619556,17.176134 36.3266321,17.1178065 L36.3266321,24.3390877 Z M35.7787337,16.1156406 C35.7749329,16.1156406 35.7712052,16.1161523 35.7674044,16.1162254 L35.2308352,16.1162254 L35.2308352,15.0198437 L35.7787337,15.0198437 C36.0808234,15.0198437 36.3266321,15.2656525 36.3266321,15.5677422 C36.3266321,15.8698319 36.0808234,16.1156406 35.7787337,16.1156406 Z" id="Shape"></path>
                <path d="M30.2966062,19.0399828 C29.1882375,19.0399828 28.2865732,19.9417202 28.2865732,21.0500889 C28.2865732,22.1584577 29.1882375,23.0601219 30.2966062,23.0601219 C31.4049749,23.0601219 32.3066392,22.1584577 32.3066392,21.0500889 C32.3066392,19.9417202 31.4049749,19.0399828 30.2966062,19.0399828 Z M30.2966062,21.9637403 C29.7927823,21.9637403 29.3829548,21.5539128 29.3829548,21.0500889 C29.3829548,20.546265 29.7927823,20.1363645 30.2966062,20.1363645 C30.8004301,20.1363645 31.2102576,20.546265 31.2102576,21.0500889 C31.2102576,21.5539128 30.8004301,21.9637403 30.2966062,21.9637403 Z" id="Shape"></path>
            </g>
        </g>
    </g>
</svg>